<svg width="168" height="168" viewBox="0 0 168 168" fill="none" xmlns="http://www.w3.org/2000/svg">
<g filter="url(#filter0_d_0_1481)">
<rect x="59.1724" width="5.51724" height="5.51724" fill="white"/>
<rect x="86.7586" width="5.51724" height="5.51724" fill="white"/>
<rect x="92.2759" width="5.51724" height="5.51724" fill="white"/>
<rect x="103.31" width="5.51724" height="5.51724" fill="white"/>
<rect x="48.1379" y="5.51721" width="5.51724" height="5.51724" fill="white"/>
<rect x="53.6552" y="5.51721" width="5.51724" height="5.51724" fill="white"/>
<rect x="64.6896" y="5.51721" width="5.51724" height="5.51724" fill="white"/>
<rect x="70.2069" y="5.51721" width="5.51724" height="5.51724" fill="white"/>
<rect x="75.7241" y="5.51721" width="5.51724" height="5.51724" fill="white"/>
<rect x="81.2414" y="5.51721" width="5.51724" height="5.51724" fill="white"/>
<rect x="92.2759" y="5.51721" width="5.51724" height="5.51724" fill="white"/>
<rect x="97.7931" y="5.51721" width="5.51724" height="5.51724" fill="white"/>
<rect x="114.345" y="5.51721" width="5.51724" height="5.51724" fill="white"/>
<rect x="48.1379" y="11.0345" width="5.51724" height="5.51724" fill="white"/>
<rect x="53.6552" y="11.0345" width="5.51724" height="5.51724" fill="white"/>
<rect x="59.1724" y="11.0345" width="5.51724" height="5.51724" fill="white"/>
<rect x="70.2069" y="11.0345" width="5.51724" height="5.51724" fill="white"/>
<rect x="75.7241" y="11.0345" width="5.51724" height="5.51724" fill="white"/>
<rect x="86.7586" y="11.0345" width="5.51724" height="5.51724" fill="white"/>
<rect x="103.31" y="11.0345" width="5.51724" height="5.51724" fill="white"/>
<rect x="114.345" y="11.0345" width="5.51724" height="5.51724" fill="white"/>
<rect x="48.1379" y="16.5517" width="5.51724" height="5.51724" fill="white"/>
<rect x="53.6552" y="16.5517" width="5.51724" height="5.51724" fill="white"/>
<rect x="64.6896" y="16.5517" width="5.51724" height="5.51724" fill="white"/>
<rect x="92.2759" y="16.5517" width="5.51724" height="5.51724" fill="white"/>
<rect x="97.7931" y="16.5517" width="5.51724" height="5.51724" fill="white"/>
<rect x="114.345" y="16.5517" width="5.51724" height="5.51724" fill="white"/>
<rect x="53.6552" y="22.069" width="5.51724" height="5.51724" fill="white"/>
<rect x="86.7586" y="22.069" width="5.51724" height="5.51724" fill="white"/>
<rect x="92.2759" y="22.069" width="5.51724" height="5.51724" fill="white"/>
<rect x="108.828" y="22.069" width="5.51724" height="5.51724" fill="white"/>
<rect x="114.345" y="22.069" width="5.51724" height="5.51724" fill="white"/>
<rect x="53.6552" y="27.5862" width="5.51724" height="5.51724" fill="white"/>
<rect x="70.2069" y="27.5862" width="5.51724" height="5.51724" fill="white"/>
<rect x="86.7586" y="27.5862" width="5.51724" height="5.51724" fill="white"/>
<rect x="114.345" y="27.5862" width="5.51724" height="5.51724" fill="white"/>
<rect x="48.1379" y="33.1035" width="5.51724" height="5.51724" fill="white"/>
<rect x="59.1724" y="33.1035" width="5.51724" height="5.51724" fill="white"/>
<rect x="70.2069" y="33.1035" width="5.51724" height="5.51724" fill="white"/>
<rect x="81.2414" y="33.1035" width="5.51724" height="5.51724" fill="white"/>
<rect x="92.2759" y="33.1035" width="5.51724" height="5.51724" fill="white"/>
<rect x="103.31" y="33.1035" width="5.51724" height="5.51724" fill="white"/>
<rect x="114.345" y="33.1035" width="5.51724" height="5.51724" fill="white"/>
<rect x="48.1379" y="38.6207" width="5.51724" height="5.51724" fill="white"/>
<rect x="64.6896" y="38.6207" width="5.51724" height="5.51724" fill="white"/>
<rect x="81.2414" y="38.6207" width="5.51724" height="5.51724" fill="white"/>
<rect x="86.7586" y="38.6207" width="5.51724" height="5.51724" fill="white"/>
<rect x="92.2759" y="38.6207" width="5.51724" height="5.51724" fill="white"/>
<rect x="103.31" y="38.6207" width="5.51724" height="5.51724" fill="white"/>
<rect x="114.345" y="38.6207" width="5.51724" height="5.51724" fill="white"/>
<rect x="4" y="44.1379" width="5.51724" height="5.51724" fill="white"/>
<rect x="37.1035" y="44.1379" width="5.51724" height="5.51724" fill="white"/>
<rect x="48.1379" y="44.1379" width="5.51724" height="5.51724" fill="white"/>
<rect x="59.1724" y="44.1379" width="5.51724" height="5.51724" fill="white"/>
<rect x="92.2759" y="44.1379" width="5.51724" height="5.51724" fill="white"/>
<rect x="97.7931" y="44.1379" width="5.51724" height="5.51724" fill="white"/>
<rect x="108.828" y="44.1379" width="5.51724" height="5.51724" fill="white"/>
<rect x="119.862" y="44.1379" width="5.51724" height="5.51724" fill="white"/>
<rect x="125.379" y="44.1379" width="5.51724" height="5.51724" fill="white"/>
<rect x="141.931" y="44.1379" width="5.51724" height="5.51724" fill="white"/>
<rect x="147.448" y="44.1379" width="5.51724" height="5.51724" fill="white"/>
<rect x="152.966" y="44.1379" width="5.51724" height="5.51724" fill="white"/>
<rect x="4" y="49.6552" width="5.51724" height="5.51724" fill="white"/>
<rect x="15.0345" y="49.6552" width="5.51724" height="5.51724" fill="white"/>
<rect x="31.5862" y="49.6552" width="5.51724" height="5.51724" fill="white"/>
<rect x="75.7241" y="49.6552" width="5.51724" height="5.51724" fill="white"/>
<rect x="92.2759" y="49.6552" width="5.51724" height="5.51724" fill="white"/>
<rect x="97.7931" y="49.6552" width="5.51724" height="5.51724" fill="white"/>
<rect x="103.31" y="49.6552" width="5.51724" height="5.51724" fill="white"/>
<rect x="108.828" y="49.6552" width="5.51724" height="5.51724" fill="white"/>
<rect x="130.897" y="49.6552" width="5.51724" height="5.51724" fill="white"/>
<rect x="136.414" y="49.6552" width="5.51724" height="5.51724" fill="white"/>
<rect x="147.448" y="49.6552" width="5.51724" height="5.51724" fill="white"/>
<rect x="152.966" y="49.6552" width="5.51724" height="5.51724" fill="white"/>
<rect x="9.51721" y="55.1724" width="5.51724" height="5.51724" fill="white"/>
<rect x="15.0345" y="55.1724" width="5.51724" height="5.51724" fill="white"/>
<rect x="20.5517" y="55.1724" width="5.51724" height="5.51724" fill="white"/>
<rect x="26.069" y="55.1724" width="5.51724" height="5.51724" fill="white"/>
<rect x="37.1035" y="55.1724" width="5.51724" height="5.51724" fill="white"/>
<rect x="42.6207" y="55.1724" width="5.51724" height="5.51724" fill="white"/>
<rect x="48.1379" y="55.1724" width="5.51724" height="5.51724" fill="white"/>
<rect x="53.6552" y="55.1724" width="5.51724" height="5.51724" fill="white"/>
<rect x="70.2069" y="55.1724" width="5.51724" height="5.51724" fill="white"/>
<rect x="75.7241" y="55.1724" width="5.51724" height="5.51724" fill="white"/>
<rect x="81.2414" y="55.1724" width="5.51724" height="5.51724" fill="white"/>
<rect x="86.7586" y="55.1724" width="5.51724" height="5.51724" fill="white"/>
<rect x="92.2759" y="55.1724" width="5.51724" height="5.51724" fill="white"/>
<rect x="97.7931" y="55.1724" width="5.51724" height="5.51724" fill="white"/>
<rect x="4" y="60.6896" width="5.51724" height="5.51724" fill="white"/>
<rect x="15.0345" y="60.6896" width="5.51724" height="5.51724" fill="white"/>
<rect x="31.5862" y="60.6896" width="5.51724" height="5.51724" fill="white"/>
<rect x="42.6207" y="60.6896" width="5.51724" height="5.51724" fill="white"/>
<rect x="48.1379" y="60.6896" width="5.51724" height="5.51724" fill="white"/>
<rect x="53.6552" y="60.6896" width="5.51724" height="5.51724" fill="white"/>
<rect x="59.1724" y="60.6896" width="5.51724" height="5.51724" fill="white"/>
<rect x="70.2069" y="60.6896" width="5.51724" height="5.51724" fill="white"/>
<rect x="75.7241" y="60.6896" width="5.51724" height="5.51724" fill="white"/>
<rect x="114.345" y="60.6896" width="5.51724" height="5.51724" fill="white"/>
<rect x="125.379" y="60.6896" width="5.51724" height="5.51724" fill="white"/>
<rect x="130.897" y="60.6896" width="5.51724" height="5.51724" fill="white"/>
<rect x="141.931" y="60.6896" width="5.51724" height="5.51724" fill="white"/>
<rect x="9.51721" y="66.2069" width="5.51724" height="5.51724" fill="white"/>
<rect x="31.5862" y="66.2069" width="5.51724" height="5.51724" fill="white"/>
<rect x="37.1035" y="66.2069" width="5.51724" height="5.51724" fill="white"/>
<rect x="48.1379" y="66.2069" width="5.51724" height="5.51724" fill="white"/>
<rect x="59.1724" y="66.2069" width="5.51724" height="5.51724" fill="white"/>
<rect x="75.7241" y="66.2069" width="5.51724" height="5.51724" fill="white"/>
<rect x="86.7586" y="66.2069" width="5.51724" height="5.51724" fill="white"/>
<rect x="92.2759" y="66.2069" width="5.51724" height="5.51724" fill="white"/>
<rect x="108.828" y="66.2069" width="5.51724" height="5.51724" fill="white"/>
<rect x="114.345" y="66.2069" width="5.51724" height="5.51724" fill="white"/>
<rect x="125.379" y="66.2069" width="5.51724" height="5.51724" fill="white"/>
<rect x="130.897" y="66.2069" width="5.51724" height="5.51724" fill="white"/>
<rect x="158.483" y="66.2069" width="5.51724" height="5.51724" fill="white"/>
<rect x="15.0345" y="71.7241" width="5.51724" height="5.51724" fill="white"/>
<rect x="26.069" y="71.7241" width="5.51724" height="5.51724" fill="white"/>
<rect x="42.6207" y="71.7241" width="5.51724" height="5.51724" fill="white"/>
<rect x="53.6552" y="71.7241" width="5.51724" height="5.51724" fill="white"/>
<rect x="59.1724" y="71.7241" width="5.51724" height="5.51724" fill="white"/>
<rect x="92.2759" y="71.7241" width="5.51724" height="5.51724" fill="white"/>
<rect x="108.828" y="71.7241" width="5.51724" height="5.51724" fill="white"/>
<rect x="114.345" y="71.7241" width="5.51724" height="5.51724" fill="white"/>
<rect x="119.862" y="71.7241" width="5.51724" height="5.51724" fill="white"/>
<rect x="125.379" y="71.7241" width="5.51724" height="5.51724" fill="white"/>
<rect x="136.414" y="71.7241" width="5.51724" height="5.51724" fill="white"/>
<rect x="152.966" y="71.7241" width="5.51724" height="5.51724" fill="white"/>
<rect x="158.483" y="71.7241" width="5.51724" height="5.51724" fill="white"/>
<rect x="4" y="77.2414" width="5.51724" height="5.51724" fill="white"/>
<rect x="9.51721" y="77.2414" width="5.51724" height="5.51724" fill="white"/>
<rect x="26.069" y="77.2414" width="5.51724" height="5.51724" fill="white"/>
<rect x="37.1035" y="77.2414" width="5.51724" height="5.51724" fill="white"/>
<rect x="48.1379" y="77.2414" width="5.51724" height="5.51724" fill="white"/>
<rect x="53.6552" y="77.2414" width="5.51724" height="5.51724" fill="white"/>
<rect x="97.7931" y="77.2414" width="5.51724" height="5.51724" fill="white"/>
<rect x="103.31" y="77.2414" width="5.51724" height="5.51724" fill="white"/>
<rect x="119.862" y="77.2414" width="5.51724" height="5.51724" fill="white"/>
<rect x="130.897" y="77.2414" width="5.51724" height="5.51724" fill="white"/>
<rect x="141.931" y="77.2414" width="5.51724" height="5.51724" fill="white"/>
<rect x="147.448" y="77.2414" width="5.51724" height="5.51724" fill="white"/>
<rect x="48.1379" y="82.7586" width="5.51724" height="5.51724" fill="white"/>
<rect x="53.6552" y="82.7586" width="5.51724" height="5.51724" fill="white"/>
<rect x="59.1724" y="82.7586" width="5.51724" height="5.51724" fill="white"/>
<rect x="86.7586" y="82.7586" width="5.51724" height="5.51724" fill="white"/>
<rect x="103.31" y="82.7586" width="5.51724" height="5.51724" fill="white"/>
<rect x="108.828" y="82.7586" width="5.51724" height="5.51724" fill="white"/>
<rect x="130.897" y="82.7586" width="5.51724" height="5.51724" fill="white"/>
<rect x="136.414" y="82.7586" width="5.51724" height="5.51724" fill="white"/>
<rect x="147.448" y="82.7586" width="5.51724" height="5.51724" fill="white"/>
<rect x="158.483" y="82.7586" width="5.51724" height="5.51724" fill="white"/>
<rect x="4" y="88.2759" width="5.51724" height="5.51724" fill="white"/>
<rect x="26.069" y="88.2759" width="5.51724" height="5.51724" fill="white"/>
<rect x="31.5862" y="88.2759" width="5.51724" height="5.51724" fill="white"/>
<rect x="37.1035" y="88.2759" width="5.51724" height="5.51724" fill="white"/>
<rect x="64.6896" y="88.2759" width="5.51724" height="5.51724" fill="white"/>
<rect x="92.2759" y="88.2759" width="5.51724" height="5.51724" fill="white"/>
<rect x="97.7931" y="88.2759" width="5.51724" height="5.51724" fill="white"/>
<rect x="103.31" y="88.2759" width="5.51724" height="5.51724" fill="white"/>
<rect x="108.828" y="88.2759" width="5.51724" height="5.51724" fill="white"/>
<rect x="130.897" y="88.2759" width="5.51724" height="5.51724" fill="white"/>
<rect x="141.931" y="88.2759" width="5.51724" height="5.51724" fill="white"/>
<rect x="147.448" y="88.2759" width="5.51724" height="5.51724" fill="white"/>
<rect x="4" y="93.7931" width="5.51724" height="5.51724" fill="white"/>
<rect x="42.6207" y="93.7931" width="5.51724" height="5.51724" fill="white"/>
<rect x="48.1379" y="93.7931" width="5.51724" height="5.51724" fill="white"/>
<rect x="53.6552" y="93.7931" width="5.51724" height="5.51724" fill="white"/>
<rect x="64.6896" y="93.7931" width="5.51724" height="5.51724" fill="white"/>
<rect x="75.7241" y="93.7931" width="5.51724" height="5.51724" fill="white"/>
<rect x="81.2414" y="93.7931" width="5.51724" height="5.51724" fill="white"/>
<rect x="97.7931" y="93.7931" width="5.51724" height="5.51724" fill="white"/>
<rect x="103.31" y="93.7931" width="5.51724" height="5.51724" fill="white"/>
<rect x="108.828" y="93.7931" width="5.51724" height="5.51724" fill="white"/>
<rect x="114.345" y="93.7931" width="5.51724" height="5.51724" fill="white"/>
<rect x="125.379" y="93.7931" width="5.51724" height="5.51724" fill="white"/>
<rect x="130.897" y="93.7931" width="5.51724" height="5.51724" fill="white"/>
<rect x="136.414" y="93.7931" width="5.51724" height="5.51724" fill="white"/>
<rect x="147.448" y="93.7931" width="5.51724" height="5.51724" fill="white"/>
<rect x="152.966" y="93.7931" width="5.51724" height="5.51724" fill="white"/>
<rect x="158.483" y="93.7931" width="5.51724" height="5.51724" fill="white"/>
<rect x="4" y="99.3104" width="5.51724" height="5.51724" fill="white"/>
<rect x="9.51721" y="99.3104" width="5.51724" height="5.51724" fill="white"/>
<rect x="20.5517" y="99.3104" width="5.51724" height="5.51724" fill="white"/>
<rect x="26.069" y="99.3104" width="5.51724" height="5.51724" fill="white"/>
<rect x="31.5862" y="99.3104" width="5.51724" height="5.51724" fill="white"/>
<rect x="37.1035" y="99.3104" width="5.51724" height="5.51724" fill="white"/>
<rect x="48.1379" y="99.3104" width="5.51724" height="5.51724" fill="white"/>
<rect x="53.6552" y="99.3104" width="5.51724" height="5.51724" fill="white"/>
<rect x="64.6896" y="99.3104" width="5.51724" height="5.51724" fill="white"/>
<rect x="86.7586" y="99.3104" width="5.51724" height="5.51724" fill="white"/>
<rect x="108.828" y="99.3104" width="5.51724" height="5.51724" fill="white"/>
<rect x="141.931" y="99.3104" width="5.51724" height="5.51724" fill="white"/>
<rect x="158.483" y="99.3104" width="5.51724" height="5.51724" fill="white"/>
<rect x="4" y="104.828" width="5.51724" height="5.51724" fill="white"/>
<rect x="15.0345" y="104.828" width="5.51724" height="5.51724" fill="white"/>
<rect x="20.5517" y="104.828" width="5.51724" height="5.51724" fill="white"/>
<rect x="31.5862" y="104.828" width="5.51724" height="5.51724" fill="white"/>
<rect x="53.6552" y="104.828" width="5.51724" height="5.51724" fill="white"/>
<rect x="59.1724" y="104.828" width="5.51724" height="5.51724" fill="white"/>
<rect x="70.2069" y="104.828" width="5.51724" height="5.51724" fill="white"/>
<rect x="75.7241" y="104.828" width="5.51724" height="5.51724" fill="white"/>
<rect x="103.31" y="104.828" width="5.51724" height="5.51724" fill="white"/>
<rect x="114.345" y="104.828" width="5.51724" height="5.51724" fill="white"/>
<rect x="119.862" y="104.828" width="5.51724" height="5.51724" fill="white"/>
<rect x="125.379" y="104.828" width="5.51724" height="5.51724" fill="white"/>
<rect x="130.897" y="104.828" width="5.51724" height="5.51724" fill="white"/>
<rect x="136.414" y="104.828" width="5.51724" height="5.51724" fill="white"/>
<rect x="4" y="110.345" width="5.51724" height="5.51724" fill="white"/>
<rect x="26.069" y="110.345" width="5.51724" height="5.51724" fill="white"/>
<rect x="37.1035" y="110.345" width="5.51724" height="5.51724" fill="white"/>
<rect x="42.6207" y="110.345" width="5.51724" height="5.51724" fill="white"/>
<rect x="53.6552" y="110.345" width="5.51724" height="5.51724" fill="white"/>
<rect x="64.6896" y="110.345" width="5.51724" height="5.51724" fill="white"/>
<rect x="81.2414" y="110.345" width="5.51724" height="5.51724" fill="white"/>
<rect x="86.7586" y="110.345" width="5.51724" height="5.51724" fill="white"/>
<rect x="97.7931" y="110.345" width="5.51724" height="5.51724" fill="white"/>
<rect x="114.345" y="110.345" width="5.51724" height="5.51724" fill="white"/>
<rect x="119.862" y="110.345" width="5.51724" height="5.51724" fill="white"/>
<rect x="125.379" y="110.345" width="5.51724" height="5.51724" fill="white"/>
<rect x="130.897" y="110.345" width="5.51724" height="5.51724" fill="white"/>
<rect x="136.414" y="110.345" width="5.51724" height="5.51724" fill="white"/>
<rect x="147.448" y="110.345" width="5.51724" height="5.51724" fill="white"/>
<rect x="152.966" y="110.345" width="5.51724" height="5.51724" fill="white"/>
<rect x="158.483" y="110.345" width="5.51724" height="5.51724" fill="white"/>
<rect x="48.1379" y="115.862" width="5.51724" height="5.51724" fill="white"/>
<rect x="53.6552" y="115.862" width="5.51724" height="5.51724" fill="white"/>
<rect x="59.1724" y="115.862" width="5.51724" height="5.51724" fill="white"/>
<rect x="81.2414" y="115.862" width="5.51724" height="5.51724" fill="white"/>
<rect x="97.7931" y="115.862" width="5.51724" height="5.51724" fill="white"/>
<rect x="103.31" y="115.862" width="5.51724" height="5.51724" fill="white"/>
<rect x="114.345" y="115.862" width="5.51724" height="5.51724" fill="white"/>
<rect x="136.414" y="115.862" width="5.51724" height="5.51724" fill="white"/>
<rect x="141.931" y="115.862" width="5.51724" height="5.51724" fill="white"/>
<rect x="70.2069" y="121.379" width="5.51724" height="5.51724" fill="white"/>
<rect x="103.31" y="121.379" width="5.51724" height="5.51724" fill="white"/>
<rect x="108.828" y="121.379" width="5.51724" height="5.51724" fill="white"/>
<rect x="114.345" y="121.379" width="5.51724" height="5.51724" fill="white"/>
<rect x="125.379" y="121.379" width="5.51724" height="5.51724" fill="white"/>
<rect x="136.414" y="121.379" width="5.51724" height="5.51724" fill="white"/>
<rect x="141.931" y="121.379" width="5.51724" height="5.51724" fill="white"/>
<rect x="147.448" y="121.379" width="5.51724" height="5.51724" fill="white"/>
<rect x="59.1724" y="126.897" width="5.51724" height="5.51724" fill="white"/>
<rect x="64.6896" y="126.897" width="5.51724" height="5.51724" fill="white"/>
<rect x="81.2414" y="126.897" width="5.51724" height="5.51724" fill="white"/>
<rect x="86.7586" y="126.897" width="5.51724" height="5.51724" fill="white"/>
<rect x="92.2759" y="126.897" width="5.51724" height="5.51724" fill="white"/>
<rect x="108.828" y="126.897" width="5.51724" height="5.51724" fill="white"/>
<rect x="114.345" y="126.897" width="5.51724" height="5.51724" fill="white"/>
<rect x="136.414" y="126.897" width="5.51724" height="5.51724" fill="white"/>
<rect x="158.483" y="126.897" width="5.51724" height="5.51724" fill="white"/>
<rect x="70.2069" y="132.414" width="5.51724" height="5.51724" fill="white"/>
<rect x="75.7241" y="132.414" width="5.51724" height="5.51724" fill="white"/>
<rect x="81.2414" y="132.414" width="5.51724" height="5.51724" fill="white"/>
<rect x="92.2759" y="132.414" width="5.51724" height="5.51724" fill="white"/>
<rect x="108.828" y="132.414" width="5.51724" height="5.51724" fill="white"/>
<rect x="114.345" y="132.414" width="5.51724" height="5.51724" fill="white"/>
<rect x="119.862" y="132.414" width="5.51724" height="5.51724" fill="white"/>
<rect x="125.379" y="132.414" width="5.51724" height="5.51724" fill="white"/>
<rect x="130.897" y="132.414" width="5.51724" height="5.51724" fill="white"/>
<rect x="136.414" y="132.414" width="5.51724" height="5.51724" fill="white"/>
<rect x="141.931" y="132.414" width="5.51724" height="5.51724" fill="white"/>
<rect x="53.6552" y="137.931" width="5.51724" height="5.51724" fill="white"/>
<rect x="59.1724" y="137.931" width="5.51724" height="5.51724" fill="white"/>
<rect x="64.6896" y="137.931" width="5.51724" height="5.51724" fill="white"/>
<rect x="75.7241" y="137.931" width="5.51724" height="5.51724" fill="white"/>
<rect x="81.2414" y="137.931" width="5.51724" height="5.51724" fill="white"/>
<rect x="97.7931" y="137.931" width="5.51724" height="5.51724" fill="white"/>
<rect x="103.31" y="137.931" width="5.51724" height="5.51724" fill="white"/>
<rect x="119.862" y="137.931" width="5.51724" height="5.51724" fill="white"/>
<rect x="130.897" y="137.931" width="5.51724" height="5.51724" fill="white"/>
<rect x="141.931" y="137.931" width="5.51724" height="5.51724" fill="white"/>
<rect x="147.448" y="137.931" width="5.51724" height="5.51724" fill="white"/>
<rect x="152.966" y="137.931" width="5.51724" height="5.51724" fill="white"/>
<rect x="53.6552" y="143.448" width="5.51724" height="5.51724" fill="white"/>
<rect x="59.1724" y="143.448" width="5.51724" height="5.51724" fill="white"/>
<rect x="86.7586" y="143.448" width="5.51724" height="5.51724" fill="white"/>
<rect x="92.2759" y="143.448" width="5.51724" height="5.51724" fill="white"/>
<rect x="97.7931" y="143.448" width="5.51724" height="5.51724" fill="white"/>
<rect x="108.828" y="143.448" width="5.51724" height="5.51724" fill="white"/>
<rect x="119.862" y="143.448" width="5.51724" height="5.51724" fill="white"/>
<rect x="125.379" y="143.448" width="5.51724" height="5.51724" fill="white"/>
<rect x="130.897" y="143.448" width="5.51724" height="5.51724" fill="white"/>
<rect x="136.414" y="143.448" width="5.51724" height="5.51724" fill="white"/>
<rect x="141.931" y="143.448" width="5.51724" height="5.51724" fill="white"/>
<rect x="147.448" y="143.448" width="5.51724" height="5.51724" fill="white"/>
<rect x="152.966" y="143.448" width="5.51724" height="5.51724" fill="white"/>
<rect x="70.2069" y="148.966" width="5.51724" height="5.51724" fill="white"/>
<rect x="86.7586" y="148.966" width="5.51724" height="5.51724" fill="white"/>
<rect x="108.828" y="148.966" width="5.51724" height="5.51724" fill="white"/>
<rect x="119.862" y="148.966" width="5.51724" height="5.51724" fill="white"/>
<rect x="130.897" y="148.966" width="5.51724" height="5.51724" fill="white"/>
<rect x="141.931" y="148.966" width="5.51724" height="5.51724" fill="white"/>
<rect x="147.448" y="148.966" width="5.51724" height="5.51724" fill="white"/>
<rect x="158.483" y="148.966" width="5.51724" height="5.51724" fill="white"/>
<rect x="48.1379" y="154.483" width="5.51724" height="5.51724" fill="white"/>
<rect x="53.6552" y="154.483" width="5.51724" height="5.51724" fill="white"/>
<rect x="64.6896" y="154.483" width="5.51724" height="5.51724" fill="white"/>
<rect x="75.7241" y="154.483" width="5.51724" height="5.51724" fill="white"/>
<rect x="81.2414" y="154.483" width="5.51724" height="5.51724" fill="white"/>
<rect x="97.7931" y="154.483" width="5.51724" height="5.51724" fill="white"/>
<rect x="103.31" y="154.483" width="5.51724" height="5.51724" fill="white"/>
<rect x="108.828" y="154.483" width="5.51724" height="5.51724" fill="white"/>
<rect x="119.862" y="154.483" width="5.51724" height="5.51724" fill="white"/>
<rect x="125.379" y="154.483" width="5.51724" height="5.51724" fill="white"/>
<rect x="130.897" y="154.483" width="5.51724" height="5.51724" fill="white"/>
<rect x="136.414" y="154.483" width="5.51724" height="5.51724" fill="white"/>
<rect x="141.931" y="154.483" width="5.51724" height="5.51724" fill="white"/>
<rect x="147.448" y="154.483" width="5.51724" height="5.51724" fill="white"/>
<path fill-rule="evenodd" clip-rule="evenodd" d="M9.7931 0H36.8276H42.6207V5.7931V32.8276V38.6207H36.8276H9.7931H4V32.8276V5.7931V0H9.7931ZM9.7931 32.8276H36.8276V5.7931H9.7931V32.8276Z" fill="white"/>
<path fill-rule="evenodd" clip-rule="evenodd" d="M131.172 0H158.207H164V5.7931V32.8276V38.6207H158.207H131.172H125.379V32.8276V5.7931V0H131.172ZM131.172 32.8276H158.207V5.7931H131.172V32.8276Z" fill="white"/>
<path fill-rule="evenodd" clip-rule="evenodd" d="M9.7931 121.379H36.8276H42.6207V127.172V154.207V160H36.8276H9.7931H4V154.207V127.172V121.379H9.7931ZM9.7931 154.207H36.8276V127.172H9.7931V154.207Z" fill="white"/>
<rect x="15.0345" y="11.0345" width="16.5517" height="16.5517" fill="white"/>
<rect x="136.414" y="11.0345" width="16.5517" height="16.5517" fill="white"/>
<rect x="15.0345" y="132.414" width="16.5517" height="16.5517" fill="white"/>
</g>
<defs>
<filter id="filter0_d_0_1481" x="0" y="0" width="168" height="168" filterUnits="userSpaceOnUse" color-interpolation-filters="sRGB">
<feFlood flood-opacity="0" result="BackgroundImageFix"/>
<feColorMatrix in="SourceAlpha" type="matrix" values="0 0 0 0 0 0 0 0 0 0 0 0 0 0 0 0 0 0 127 0" result="hardAlpha"/>
<feOffset dy="4"/>
<feGaussianBlur stdDeviation="2"/>
<feComposite in2="hardAlpha" operator="out"/>
<feColorMatrix type="matrix" values="0 0 0 0 0 0 0 0 0 0 0 0 0 0 0 0 0 0 0.25 0"/>
<feBlend mode="normal" in2="BackgroundImageFix" result="effect1_dropShadow_0_1481"/>
<feBlend mode="normal" in="SourceGraphic" in2="effect1_dropShadow_0_1481" result="shape"/>
</filter>
</defs>
</svg>
